<?xml version="1.0" encoding="UTF-8" standalone="no"?>
<!-- Created with Inkscape (http://www.inkscape.org/) -->

<svg
   width="210mm"
   height="210mm"
   viewBox="0 0 210 210"
   version="1.1"
   id="svg1"
   xml:space="preserve"
   inkscape:version="1.4.2 (ebf0e940d0, 2025-05-08)"
   sodipodi:docname="icon.svg"
   xmlns:inkscape="http://www.inkscape.org/namespaces/inkscape"
   xmlns:sodipodi="http://sodipodi.sourceforge.net/DTD/sodipodi-0.dtd"
   xmlns="http://www.w3.org/2000/svg"
   xmlns:svg="http://www.w3.org/2000/svg"><sodipodi:namedview
     id="namedview1"
     pagecolor="#ffffff"
     bordercolor="#000000"
     borderopacity="0.25"
     inkscape:showpageshadow="2"
     inkscape:pageopacity="0.0"
     inkscape:pagecheckerboard="0"
     inkscape:deskcolor="#d1d1d1"
     inkscape:document-units="mm"
     inkscape:zoom="1.184265"
     inkscape:cx="287.52011"
     inkscape:cy="174.79196"
     inkscape:window-width="5120"
     inkscape:window-height="2091"
     inkscape:window-x="0"
     inkscape:window-y="0"
     inkscape:window-maximized="1"
     inkscape:current-layer="layer2" /><defs
     id="defs1" /><g
     inkscape:groupmode="layer"
     id="layer2"
     inkscape:label="Layer 2"
     style="display:inline"><rect
       style="fill:#e3e4e3;fill-opacity:1;stroke-width:0.553662;stroke-linecap:round;stroke-linejoin:round;paint-order:stroke fill markers"
       id="rect1"
       width="210"
       height="210"
       x="-2.8421709e-14"
       y="0"
       rx="1.1970923"
       ry="1.2094041" /><ellipse
       style="fill:#4d4d4e;fill-opacity:1;stroke-width:0.529167;stroke-linecap:round;stroke-linejoin:round;paint-order:stroke fill markers"
       id="path1"
       cx="151.10664"
       cy="88.310097"
       rx="7.7409573"
       ry="7.8199468" /><ellipse
       style="fill:#4d4d4e;fill-opacity:1;stroke-width:0.456272;stroke-linecap:round;stroke-linejoin:round;paint-order:stroke fill markers"
       id="path1-0"
       cx="176.83624"
       cy="101.45321"
       rx="6.6746011"
       ry="6.7427092" /><ellipse
       style="fill:#4d4d4e;fill-opacity:1;stroke-width:0.383376;stroke-linecap:round;stroke-linejoin:round;paint-order:stroke fill markers"
       id="path1-0-6"
       cx="168.81897"
       cy="149.18892"
       rx="5.6082449"
       ry="5.6654716" /><ellipse
       style="fill:#4d4d4e;fill-opacity:1;stroke-width:0.431973;stroke-linecap:round;stroke-linejoin:round;paint-order:stroke fill markers"
       id="path1-2"
       cx="161.1871"
       cy="59.036465"
       rx="6.3191485"
       ry="6.3836298" /><path
       style="fill:none;fill-opacity:1;stroke:#4e4d4e;stroke-width:9.129;stroke-linecap:round;stroke-linejoin:round;stroke-dasharray:none;stroke-opacity:1;paint-order:stroke fill markers"
       d="m 33.254521,85.071542 c 0,0 57.977885,-0.15798 68.246809,-0.15798 3.57639,0 27.39529,-3.870696 27.4883,-23.775797 0.079,-16.903722 -15.95586,-18.641489 -17.8516,-18.641489 -1.89574,0 -16.903722,0.315958 -16.903722,19.431384"
       id="path2"
       sodipodi:nodetypes="ccssc" /><path
       style="fill:none;fill-opacity:1;stroke:#4e4d4e;stroke-width:9.129;stroke-linecap:round;stroke-linejoin:round;stroke-dasharray:none;stroke-opacity:1;paint-order:stroke fill markers"
       d="m 33.33351,105.68776 c 0,0 87.67819,-0.079 94.23431,-0.079 14.82249,0 25.35558,7.81995 25.35558,22.43298 0,14.61304 -12.85281,18.79947 -17.45665,18.79947 -2.36968,0 -4.98247,-0.34545 -8.45186,-2.13271"
       id="path3"
       sodipodi:nodetypes="csssc" /><path
       style="fill:none;fill-opacity:1;stroke:#4e4d4e;stroke-width:9.129;stroke-linecap:round;stroke-linejoin:round;stroke-dasharray:none;stroke-opacity:1;paint-order:stroke fill markers"
       d="m 33.412498,126.06702 c 0,0 48.2625,0 55.292553,0 7.030053,0 21.090159,8.13591 21.090159,22.11702 0,13.98112 -12.796276,18.79947 -17.930584,18.79947 -5.134308,0 -16.903724,-2.44867 -16.903724,-17.37766"
       id="path4" /></g></svg>
